<?xml version="1.0" encoding="UTF-8"?>
<svg version="1.1" xmlns="http://www.w3.org/2000/svg" width="192" height="107">
<path d="M0 0 C1.2658493 -0.00852997 2.53169861 -0.01705994 3.83590698 -0.02584839 C5.23127759 -0.02514942 6.6266481 -0.02422639 8.02201843 -0.02310181 C9.49744506 -0.02908885 10.97286857 -0.03589481 12.44828796 -0.04345703 C16.45048431 -0.06110737 20.45259509 -0.06581203 24.45482659 -0.0670886 C26.9573526 -0.06851143 29.45985693 -0.07278353 31.96237755 -0.07808304 C40.69890597 -0.09658083 49.43537342 -0.10475405 58.17192078 -0.10317993 C66.30570195 -0.10197892 74.43921759 -0.1230738 82.57293159 -0.15466726 C89.56419503 -0.18085191 96.55537188 -0.1915463 103.54668397 -0.19026911 C107.7186903 -0.18976008 111.89046065 -0.19541063 116.06241798 -0.21662521 C119.98842783 -0.2360444 123.91397752 -0.23610727 127.84000397 -0.22159195 C129.27666842 -0.21950722 130.71336196 -0.22418477 132.14997673 -0.23631287 C140.6529403 -0.30341695 147.58337029 -0.29916412 154.22855091 5.6085453 C157.55928434 9.1950062 158.69824681 12.62301796 159.72001648 17.26742554 C160.79251648 17.18492554 161.86501648 17.10242554 162.97001648 17.01742554 C166.72001648 17.26742554 166.72001648 17.26742554 168.92204285 18.91439819 C171.18298205 21.87331353 171.22633214 23.46778305 171.2375946 27.16586304 C171.25020325 28.35389526 171.26281189 29.54192749 171.27580261 30.76596069 C171.26770569 32.04519409 171.25960876 33.32442749 171.25126648 34.64242554 C171.25509338 35.95904175 171.25892029 37.27565796 171.26286316 38.63217163 C171.26875372 41.41637988 171.26021062 44.20007403 171.24150085 46.98422241 C171.21871024 50.54891886 171.23183588 54.11241071 171.25579071 57.67706299 C171.27373978 61.08227984 171.26116425 64.48717448 171.25126648 67.89242554 C171.2593634 69.17165894 171.26746033 70.45089233 171.27580261 71.76889038 C171.25688965 73.55093872 171.25688965 73.55093872 171.2375946 75.36898804 C171.23441223 76.41393433 171.23122986 77.45888062 171.22795105 78.53549194 C170.58638156 81.98618294 169.50603226 83.18366674 166.72001648 85.26742554 C162.97001648 85.51742554 162.97001648 85.51742554 159.72001648 85.26742554 C159.80251648 86.25742554 159.88501648 87.24742554 159.97001648 88.26742554 C159.94867431 93.53894252 157.85031794 97.95619436 154.29423523 101.81430054 C149.32291114 106.18187209 144.95181312 107.51498313 138.44003296 107.53485107 C137.17418365 107.54338104 135.90833435 107.55191101 134.60412598 107.56069946 C133.20875537 107.5600005 131.81338486 107.55907747 130.41801453 107.55795288 C128.9425879 107.56393993 127.46716439 107.57074588 125.991745 107.57830811 C121.98954865 107.59595845 117.98743787 107.6006631 113.98520637 107.60193968 C111.48268036 107.6033625 108.98017603 107.6076346 106.47765541 107.61293411 C97.74112698 107.63143191 89.00465954 107.63960513 80.26811218 107.63803101 C72.13433101 107.63683 64.00081537 107.65792488 55.86710137 107.68951833 C48.87583793 107.71570298 41.88466108 107.72639737 34.89334899 107.72512019 C30.72134266 107.72461115 26.54957231 107.7302617 22.37761497 107.75147629 C18.45160513 107.77089547 14.52605544 107.77095835 10.60002899 107.75644302 C9.16336454 107.75435829 7.726671 107.75903584 6.29005623 107.77116394 C-9.33630717 107.8944848 -9.33630717 107.8944848 -15.78851795 101.85550499 C-20.53923729 96.55160273 -21.57961451 91.68338266 -21.57051086 84.75839233 C-21.57722809 84.01948761 -21.58394531 83.28058289 -21.59086609 82.51928711 C-21.60980907 80.08500375 -21.61376853 77.6509967 -21.61592102 75.21664429 C-21.62235208 73.51659534 -21.62908067 71.8165475 -21.63609314 70.11650085 C-21.64805704 66.55488521 -21.65177493 62.99336649 -21.65058899 59.43173218 C-21.65038598 54.88225534 -21.67767332 50.33340442 -21.71213341 45.78407574 C-21.73444315 42.27261029 -21.73842527 38.76129444 -21.73736954 35.2497654 C-21.73971993 33.57333026 -21.74851167 31.89689066 -21.76403427 30.22052574 C-21.91539344 12.18430219 -21.91539344 12.18430219 -15.8679657 5.76966858 C-10.95111331 1.33061263 -6.50135816 0.01983614 0 0 Z " fill="#F69545" transform="translate(21.279983520507813,-0.267425537109375)"/>
<path d="M0 0 C9.50168202 5.81958521 16.34853936 13.71899205 19.37890625 24.45703125 C20.40753865 34.55198179 19.55941266 42.98350293 13.3203125 51.15234375 C6.65011822 58.86862246 -0.46097652 64.74785496 -10.89453125 65.78125 C-21.71383429 66.12155346 -28.79044209 64.17525492 -36.99609375 57.08203125 C-44.76198907 49.63211915 -48.71961802 42.35912169 -49.05859375 31.58203125 C-48.76230399 20.8928082 -45.3378828 14.33967842 -37.9921875 6.65625 C-27.65849556 -2.92837696 -13.1157996 -6.11494446 0 0 Z " fill="#020100" transform="translate(101.62109375,19.54296875)"/>
<path d="M0 0 C1.43762695 -0.00290039 1.43762695 -0.00290039 2.90429688 -0.00585938 C3.89365234 0.01798828 4.88300781 0.04183594 5.90234375 0.06640625 C7.39217773 0.0499707 7.39217773 0.0499707 8.91210938 0.03320312 C16.17549213 0.10657063 16.17549213 0.10657063 18.95713806 2.29359436 C21.33190503 5.23926004 21.34599584 6.77555473 21.35742188 10.52734375 C21.37003052 11.71537598 21.38263916 12.9034082 21.39562988 14.12744141 C21.38753296 15.4066748 21.37943604 16.6859082 21.37109375 18.00390625 C21.37492065 19.32052246 21.37874756 20.63713867 21.38269043 21.99365234 C21.38858099 24.77786059 21.38003789 27.56155474 21.36132812 30.34570312 C21.33853751 33.91039958 21.35166315 37.47389143 21.37561798 41.0385437 C21.39356705 44.44376055 21.38099152 47.84865519 21.37109375 51.25390625 C21.37919067 52.53313965 21.3872876 53.81237305 21.39562988 55.13037109 C21.38302124 56.31840332 21.3704126 57.50643555 21.35742188 58.73046875 C21.35264832 60.29788818 21.35264832 60.29788818 21.34777832 61.89697266 C20.71148035 65.31931072 19.54458504 66.50460964 16.83984375 68.62890625 C14.4296875 69.14648438 14.4296875 69.14648438 11.77734375 69.16015625 C10.81570312 69.1653125 9.8540625 69.17046875 8.86328125 69.17578125 C7.86554688 69.1603125 6.8678125 69.14484375 5.83984375 69.12890625 C4.84210938 69.144375 3.844375 69.15984375 2.81640625 69.17578125 C-4.46081487 69.1367613 -4.46081487 69.1367613 -7.78515625 66.72265625 C-10.02912286 63.30570709 -10.30018679 61.32910842 -10.35302734 57.2487793 C-10.36909027 56.12388596 -10.3851532 54.99899261 -10.40170288 53.8400116 C-10.44607101 48.69324534 -10.48765727 43.54656824 -10.51025391 38.3996582 C-10.52358836 35.68251846 -10.55143007 32.96613065 -10.59228516 30.24926758 C-10.65109793 26.33807395 -10.66891588 22.42724573 -10.68359375 18.515625 C-10.70626312 17.30090012 -10.7289325 16.08617523 -10.75228882 14.8346405 C-10.73128002 6.47287994 -10.73128002 6.47287994 -7.94995117 2.36279297 C-4.97708563 0.51512595 -3.4640029 -0.00288694 0 0 Z " fill="#000000" transform="translate(171.16015625,16.37109375)"/>
</svg>
