<?xml version="1.0" encoding="UTF-8"?>
<svg xmlns="http://www.w3.org/2000/svg" xmlns:xlink="http://www.w3.org/1999/xlink" width="251px" height="190px" viewBox="0 0 251 190" version="1.1">
<g id="surface1">
<path style=" stroke:none;fill-rule:nonzero;fill:rgb(100%,99.215686%,0%);fill-opacity:1;" d="M 99.023438 0.25 C 99.578125 0.941406 99.953125 1.589844 100.28125 2.410156 C 100.425781 2.757812 100.425781 2.757812 100.570312 3.113281 C 100.667969 3.363281 100.769531 3.617188 100.871094 3.875 C 100.980469 4.140625 101.085938 4.40625 101.199219 4.679688 C 101.550781 5.554688 101.902344 6.429688 102.253906 7.308594 C 102.503906 7.917969 102.75 8.53125 102.996094 9.144531 C 103.445312 10.246094 103.890625 11.351562 104.332031 12.453125 C 105.390625 15.070312 106.453125 17.6875 107.519531 20.304688 C 107.828125 21.0625 108.140625 21.820312 108.449219 22.582031 C 110.269531 27.054688 112.09375 31.527344 113.921875 36 C 114.496094 37.402344 115.066406 38.804688 115.640625 40.207031 C 116.03125 41.164062 116.421875 42.125 116.8125 43.085938 C 117.003906 43.554688 117.195312 44.019531 117.386719 44.488281 C 118.316406 46.777344 119.253906 49.0625 120.203125 51.34375 C 120.277344 51.515625 120.347656 51.691406 120.421875 51.867188 C 120.75 52.660156 121.082031 53.449219 121.417969 54.238281 C 121.585938 54.640625 121.585938 54.640625 121.753906 55.050781 C 121.902344 55.394531 121.902344 55.394531 122.050781 55.746094 C 122.253906 56.324219 122.253906 56.324219 122.253906 57.074219 C 123.4375 55.964844 124.386719 54.710938 125.359375 53.414062 C 125.535156 53.183594 125.710938 52.949219 125.890625 52.710938 C 127.179688 51.003906 128.445312 49.277344 129.707031 47.550781 C 130.839844 46.011719 132.003906 44.5 133.183594 42.996094 C 134.367188 41.480469 135.507812 39.933594 136.644531 38.378906 C 137.738281 36.878906 138.859375 35.398438 139.988281 33.921875 C 141.269531 32.242188 142.535156 30.554688 143.78125 28.851562 C 145.011719 27.164062 146.261719 25.496094 147.535156 23.839844 C 148.226562 22.941406 148.910156 22.039062 149.582031 21.121094 C 149.71875 20.9375 149.855469 20.75 149.996094 20.558594 C 150.261719 20.199219 150.523438 19.839844 150.78125 19.480469 C 151.085938 19.070312 151.40625 18.671875 151.726562 18.273438 C 151.890625 18.273438 152.054688 18.273438 152.226562 18.273438 C 153.300781 23.769531 154.378906 29.261719 155.449219 34.757812 C 155.949219 37.308594 156.445312 39.859375 156.949219 42.410156 C 157.382812 44.632812 157.816406 46.855469 158.25 49.082031 C 158.480469 50.257812 158.710938 51.433594 158.941406 52.613281 C 159.160156 53.71875 159.375 54.828125 159.589844 55.9375 C 159.671875 56.34375 159.75 56.75 159.832031 57.15625 C 159.941406 57.710938 160.050781 58.269531 160.15625 58.824219 C 160.21875 59.132812 160.277344 59.445312 160.339844 59.765625 C 160.453125 60.472656 160.496094 61.117188 160.46875 61.832031 C 162.101562 60.960938 163.636719 59.992188 165.167969 58.953125 C 165.699219 58.597656 166.226562 58.238281 166.757812 57.882812 C 166.980469 57.734375 166.980469 57.734375 167.203125 57.582031 C 169.246094 56.214844 171.296875 54.863281 173.347656 53.511719 C 177.007812 51.097656 180.667969 48.675781 184.308594 46.234375 C 186.410156 44.828125 188.511719 43.429688 190.625 42.039062 C 190.855469 41.882812 191.089844 41.730469 191.328125 41.574219 C 192.277344 40.949219 193.226562 40.320312 194.175781 39.695312 C 196.574219 38.117188 198.96875 36.535156 201.332031 34.90625 C 201.511719 34.78125 201.695312 34.65625 201.886719 34.527344 C 202.730469 33.945312 203.574219 33.359375 204.417969 32.769531 C 204.710938 32.566406 205.003906 32.363281 205.296875 32.160156 C 205.546875 31.984375 205.796875 31.8125 206.054688 31.628906 C 206.261719 31.519531 206.464844 31.40625 206.675781 31.289062 C 206.925781 31.375 207.171875 31.457031 207.425781 31.539062 C 206.921875 33.066406 206.417969 34.589844 205.910156 36.113281 C 205.742188 36.625 205.570312 37.136719 205.402344 37.648438 C 204.214844 41.238281 203.003906 44.816406 201.785156 48.390625 C 199.953125 53.757812 198.144531 59.132812 196.335938 64.503906 C 195.921875 65.738281 195.507812 66.964844 195.09375 68.199219 C 194.292969 70.582031 193.492188 72.964844 192.691406 75.351562 C 195.878906 75.386719 199.039062 75.28125 202.222656 75.097656 C 202.710938 75.070312 203.195312 75.042969 203.683594 75.015625 C 204.722656 74.957031 205.761719 74.898438 206.796875 74.839844 C 208.445312 74.746094 210.089844 74.652344 211.734375 74.5625 C 214.929688 74.382812 218.125 74.203125 221.320312 74.023438 C 225.390625 73.792969 229.460938 73.5625 233.53125 73.335938 C 235.164062 73.246094 236.796875 73.152344 238.429688 73.058594 C 239.449219 73 240.464844 72.945312 241.484375 72.886719 C 241.953125 72.863281 242.421875 72.835938 242.890625 72.808594 C 245.558594 72.65625 248.214844 72.558594 250.886719 72.597656 C 250.15625 73.15625 249.441406 73.605469 248.621094 74.027344 C 248.367188 74.15625 248.117188 74.285156 247.859375 74.417969 C 247.59375 74.554688 247.324219 74.691406 247.046875 74.832031 C 245.003906 75.886719 242.972656 76.957031 240.960938 78.070312 C 238.679688 79.332031 236.371094 80.53125 234.058594 81.722656 C 232.078125 82.746094 230.109375 83.785156 228.160156 84.859375 C 225.898438 86.109375 223.613281 87.300781 221.316406 88.484375 C 219.121094 89.617188 216.9375 90.78125 214.773438 91.976562 C 212.519531 93.21875 210.234375 94.394531 207.945312 95.5625 C 207.652344 95.710938 207.363281 95.859375 207.066406 96.015625 C 206.808594 96.144531 206.554688 96.277344 206.289062 96.410156 C 205.554688 96.808594 204.839844 97.226562 204.125 97.660156 C 203.902344 97.792969 203.675781 97.929688 203.445312 98.066406 C 203.277344 98.171875 203.105469 98.273438 202.929688 98.378906 C 203.121094 98.472656 203.308594 98.566406 203.5 98.664062 C 208.09375 100.964844 212.683594 103.261719 217.273438 105.558594 C 219.496094 106.671875 221.714844 107.785156 223.933594 108.894531 C 225.871094 109.863281 227.804688 110.832031 229.742188 111.804688 C 230.765625 112.316406 231.789062 112.828125 232.8125 113.339844 C 233.78125 113.824219 234.746094 114.308594 235.710938 114.792969 C 236.0625 114.96875 236.417969 115.144531 236.769531 115.320312 C 238.582031 116.226562 240.386719 117.144531 242.144531 118.15625 C 242.144531 118.320312 242.144531 118.488281 242.144531 118.65625 C 235.921875 119.539062 229.699219 120.417969 223.476562 121.300781 C 220.589844 121.707031 217.699219 122.117188 214.808594 122.527344 C 212.292969 122.886719 209.773438 123.242188 207.257812 123.597656 C 205.921875 123.785156 204.589844 123.972656 203.253906 124.164062 C 202 124.34375 200.746094 124.519531 199.488281 124.695312 C 199.027344 124.761719 198.570312 124.824219 198.105469 124.890625 C 197.476562 124.980469 196.847656 125.070312 196.21875 125.160156 C 196.039062 125.183594 195.855469 125.210938 195.671875 125.238281 C 194.578125 125.390625 193.539062 125.4375 192.441406 125.414062 C 193.113281 126.628906 193.957031 127.691406 194.8125 128.78125 C 194.96875 128.980469 195.125 129.179688 195.289062 129.386719 C 195.753906 129.980469 196.21875 130.578125 196.6875 131.171875 C 196.925781 131.476562 197.164062 131.785156 197.40625 132.089844 C 197.730469 132.507812 198.058594 132.925781 198.390625 133.34375 C 199.324219 134.535156 200.253906 135.730469 201.183594 136.929688 C 202.566406 138.714844 203.953125 140.492188 205.347656 142.265625 C 205.6875 142.695312 206.023438 143.128906 206.363281 143.558594 C 206.476562 143.707031 206.589844 143.851562 206.707031 144 C 206.933594 144.289062 207.164062 144.582031 207.390625 144.871094 C 207.996094 145.644531 208.601562 146.414062 209.210938 147.183594 C 209.335938 147.34375 209.464844 147.507812 209.59375 147.671875 C 209.84375 147.984375 210.089844 148.296875 210.335938 148.605469 C 211.175781 149.667969 211.175781 149.667969 211.175781 149.945312 C 208.707031 149.789062 206.28125 149.433594 203.84375 149.050781 C 203.414062 148.984375 202.984375 148.921875 202.554688 148.855469 C 201.398438 148.675781 200.242188 148.496094 199.085938 148.316406 C 197.875 148.125 196.660156 147.9375 195.449219 147.75 C 193.414062 147.4375 191.378906 147.121094 189.34375 146.804688 C 186.734375 146.398438 184.121094 145.992188 181.511719 145.589844 C 179.261719 145.242188 177.011719 144.890625 174.765625 144.542969 C 174.042969 144.433594 173.320312 144.320312 172.601562 144.207031 C 171.46875 144.03125 170.335938 143.855469 169.203125 143.679688 C 168.789062 143.617188 168.371094 143.550781 167.957031 143.488281 C 167.390625 143.398438 166.820312 143.3125 166.253906 143.222656 C 165.9375 143.175781 165.621094 143.125 165.292969 143.074219 C 164.597656 142.960938 163.90625 142.832031 163.214844 142.6875 C 163.234375 142.851562 163.253906 143.019531 163.273438 143.1875 C 163.820312 148.148438 164.292969 153.113281 164.746094 158.082031 C 164.824219 158.917969 164.898438 159.753906 164.976562 160.589844 C 165.15625 162.558594 165.335938 164.527344 165.515625 166.492188 C 165.703125 168.515625 165.886719 170.539062 166.070312 172.5625 C 166.234375 174.3125 166.394531 176.0625 166.550781 177.8125 C 166.648438 178.851562 166.742188 179.894531 166.839844 180.933594 C 166.925781 181.90625 167.015625 182.878906 167.105469 183.851562 C 167.136719 184.207031 167.167969 184.5625 167.203125 184.917969 C 167.246094 185.40625 167.289062 185.890625 167.335938 186.378906 C 167.371094 186.789062 167.371094 186.789062 167.410156 187.203125 C 167.464844 188.054688 167.472656 188.898438 167.460938 189.75 C 166.128906 188.695312 165.101562 187.539062 164.046875 186.210938 C 163.496094 185.53125 162.929688 184.886719 162.339844 184.242188 C 161.585938 183.410156 160.863281 182.566406 160.15625 181.691406 C 158.855469 180.082031 157.492188 178.523438 156.132812 176.957031 C 155.488281 176.210938 154.847656 175.464844 154.210938 174.714844 C 154.085938 174.570312 153.964844 174.425781 153.835938 174.28125 C 153.589844 173.988281 153.34375 173.699219 153.097656 173.410156 C 152.597656 172.828125 152.101562 172.246094 151.601562 171.664062 C 151.351562 171.371094 151.105469 171.082031 150.855469 170.789062 C 150.222656 170.046875 149.585938 169.308594 148.953125 168.570312 C 147.808594 167.234375 146.667969 165.898438 145.5625 164.53125 C 144.671875 163.433594 143.746094 162.386719 142.796875 161.34375 C 142.019531 160.464844 141.285156 159.550781 140.550781 158.640625 C 140.003906 157.976562 139.441406 157.339844 138.863281 156.707031 C 138.109375 155.875 137.382812 155.03125 136.679688 154.15625 C 135.375 152.542969 134.015625 150.984375 132.65625 149.421875 C 132.011719 148.675781 131.371094 147.925781 130.730469 147.175781 C 130.609375 147.035156 130.488281 146.894531 130.363281 146.746094 C 129.988281 146.3125 129.617188 145.878906 129.246094 145.441406 C 126.886719 142.675781 126.886719 142.675781 124.5 139.933594 C 123.257812 141.15625 122.058594 142.390625 120.921875 143.714844 C 120.382812 144.328125 119.800781 144.898438 119.214844 145.472656 C 118.773438 145.925781 118.359375 146.390625 117.945312 146.871094 C 117.019531 147.9375 116.058594 148.96875 115.085938 149.992188 C 113.878906 151.277344 112.671875 152.5625 111.480469 153.859375 C 109.6875 155.8125 107.878906 157.75 106.070312 159.6875 C 103.28125 162.679688 100.496094 165.671875 97.773438 168.722656 C 97.226562 168.171875 97.109375 167.84375 96.863281 167.117188 C 96.746094 166.769531 96.746094 166.769531 96.628906 166.417969 C 96.542969 166.164062 96.460938 165.910156 96.375 165.648438 C 96.285156 165.382812 96.195312 165.117188 96.105469 164.847656 C 95.914062 164.273438 95.722656 163.703125 95.53125 163.128906 C 95.023438 161.609375 94.511719 160.089844 94 158.570312 C 93.84375 158.109375 93.84375 158.109375 93.6875 157.640625 C 92.746094 154.851562 91.785156 152.070312 90.8125 149.289062 C 90.511719 148.425781 90.207031 147.566406 89.90625 146.703125 C 89.835938 146.492188 89.761719 146.285156 89.6875 146.074219 C 88.453125 142.53125 87.246094 138.980469 86.035156 135.425781 C 83.46875 136.371094 80.976562 137.460938 78.480469 138.578125 C 77.289062 139.109375 76.09375 139.640625 74.902344 140.171875 C 74.660156 140.277344 74.417969 140.386719 74.167969 140.496094 C 71.90625 141.5 69.636719 142.488281 67.363281 143.46875 C 66.609375 143.796875 65.851562 144.125 65.09375 144.453125 C 64.90625 144.53125 64.722656 144.613281 64.527344 144.695312 C 62.339844 145.640625 60.152344 146.597656 57.964844 147.554688 C 57.765625 147.640625 57.5625 147.730469 57.351562 147.820312 C 56.328125 148.269531 55.304688 148.714844 54.28125 149.164062 C 52.289062 150.035156 50.296875 150.90625 48.304688 151.777344 C 48.105469 151.863281 47.90625 151.953125 47.703125 152.039062 C 44.085938 153.621094 40.464844 155.199219 36.84375 156.773438 C 33.511719 158.226562 30.183594 159.679688 26.855469 161.132812 C 26.453125 161.308594 26.054688 161.484375 25.652344 161.65625 C 23.867188 162.4375 22.078125 163.21875 20.292969 164.003906 C 17.867188 165.066406 15.441406 166.125 13.011719 167.183594 C 12.3125 167.488281 11.609375 167.792969 10.910156 168.097656 C 9.6875 168.632812 8.464844 169.164062 7.238281 169.695312 C 6.765625 169.902344 6.296875 170.105469 5.824219 170.3125 C 5.167969 170.597656 4.515625 170.882812 3.859375 171.164062 C 3.664062 171.25 3.46875 171.335938 3.269531 171.425781 C 2.804688 171.625 2.332031 171.800781 1.859375 171.976562 C 1.695312 171.894531 1.53125 171.808594 1.359375 171.726562 C 3.441406 169.761719 5.519531 167.800781 7.605469 165.84375 C 8.980469 164.550781 10.355469 163.257812 11.726562 161.960938 C 13.261719 160.511719 14.800781 159.066406 16.34375 157.617188 C 17.554688 156.480469 18.761719 155.34375 19.96875 154.203125 C 22.171875 152.125 24.375 150.050781 26.582031 147.980469 C 28.636719 146.050781 30.691406 144.117188 32.742188 142.183594 C 34.101562 140.902344 35.464844 139.621094 36.824219 138.34375 C 38.035156 137.207031 39.242188 136.066406 40.449219 134.929688 C 42.15625 133.320312 43.863281 131.710938 45.574219 130.105469 C 46.257812 129.464844 46.941406 128.824219 47.621094 128.179688 C 49.417969 126.484375 51.21875 124.800781 53.066406 123.164062 C 51.785156 122.828125 50.523438 122.550781 49.21875 122.339844 C 49.042969 122.3125 48.867188 122.285156 48.6875 122.253906 C 48.109375 122.160156 47.527344 122.066406 46.949219 121.972656 C 46.527344 121.90625 46.109375 121.835938 45.691406 121.769531 C 44.5625 121.585938 43.425781 121.402344 42.292969 121.21875 C 41.105469 121.027344 39.914062 120.835938 38.722656 120.640625 C 36.71875 120.316406 34.714844 119.992188 32.714844 119.667969 C 29.90625 119.21875 27.097656 118.761719 24.289062 118.304688 C 20.507812 117.695312 16.730469 117.085938 12.953125 116.472656 C 12.546875 116.410156 12.140625 116.34375 11.738281 116.277344 C 8.863281 115.8125 5.984375 115.355469 3.109375 114.902344 C 3.414062 113.980469 3.664062 113.890625 4.476562 113.398438 C 4.710938 113.25 4.949219 113.101562 5.195312 112.953125 C 5.453125 112.796875 5.714844 112.636719 5.980469 112.476562 C 6.53125 112.136719 7.082031 111.796875 7.632812 111.457031 C 7.777344 111.371094 7.917969 111.28125 8.0625 111.191406 C 9.558594 110.273438 11.03125 109.328125 12.507812 108.375 C 13.03125 108.039062 13.554688 107.703125 14.078125 107.367188 C 14.332031 107.203125 14.585938 107.039062 14.847656 106.871094 C 16.011719 106.125 17.179688 105.378906 18.34375 104.636719 C 20.304688 103.390625 22.261719 102.136719 24.214844 100.882812 C 26.1875 99.617188 28.15625 98.355469 30.132812 97.097656 C 30.46875 96.882812 30.46875 96.882812 30.808594 96.664062 C 31.9375 95.945312 33.066406 95.226562 34.195312 94.507812 C 37.503906 92.40625 40.792969 90.269531 44.074219 88.117188 C 42.433594 86.988281 40.75 85.964844 39.03125 84.96875 C 38.496094 84.660156 37.957031 84.347656 37.421875 84.035156 C 37.152344 83.878906 36.886719 83.726562 36.609375 83.566406 C 35.457031 82.890625 34.308594 82.210938 33.160156 81.53125 C 31.015625 80.253906 28.863281 78.988281 26.714844 77.726562 C 24.367188 76.351562 22.027344 74.96875 19.6875 73.582031 C 17.8125 72.472656 15.933594 71.367188 14.050781 70.265625 C 11.328125 68.667969 8.613281 67.058594 5.902344 65.445312 C 5.644531 65.292969 5.386719 65.140625 5.121094 64.984375 C 4.875 64.832031 4.625 64.6875 4.371094 64.535156 C 3.832031 64.21875 3.292969 63.90625 2.75 63.597656 C 2.476562 63.441406 2.199219 63.285156 1.914062 63.125 C 1.664062 62.984375 1.414062 62.84375 1.15625 62.699219 C 0.976562 62.578125 0.796875 62.457031 0.609375 62.332031 C 0.609375 62.167969 0.609375 62.003906 0.609375 61.832031 C 6.960938 62.238281 13.300781 62.820312 19.636719 63.386719 C 21.195312 63.523438 22.75 63.664062 24.308594 63.800781 C 27.082031 64.046875 29.851562 64.292969 32.625 64.539062 C 35.132812 64.761719 37.640625 64.984375 40.152344 65.207031 C 40.316406 65.222656 40.480469 65.238281 40.652344 65.253906 C 40.898438 65.273438 40.898438 65.273438 41.152344 65.296875 C 44.371094 65.582031 47.589844 65.867188 50.808594 66.152344 C 51.730469 66.234375 52.652344 66.316406 53.578125 66.398438 C 55.023438 66.53125 56.472656 66.65625 57.921875 66.785156 C 58.453125 66.832031 58.984375 66.882812 59.511719 66.929688 C 60.238281 66.992188 60.964844 67.054688 61.6875 67.121094 C 61.898438 67.140625 62.105469 67.15625 62.320312 67.179688 C 63.648438 67.296875 64.976562 67.4375 66.300781 67.589844 C 66.230469 67.375 66.160156 67.164062 66.089844 66.945312 C 63.957031 60.550781 61.847656 54.148438 59.742188 47.746094 C 59.324219 46.476562 58.90625 45.207031 58.488281 43.9375 C 57.679688 41.476562 56.871094 39.011719 56.0625 36.546875 C 56.8125 36.296875 56.8125 36.296875 57.304688 36.46875 C 57.492188 36.5625 57.679688 36.660156 57.875 36.757812 C 58.195312 36.917969 58.195312 36.917969 58.527344 37.082031 C 58.757812 37.203125 58.992188 37.320312 59.230469 37.445312 C 59.59375 37.628906 59.59375 37.628906 59.964844 37.816406 C 60.746094 38.207031 61.527344 38.605469 62.308594 39.003906 C 62.816406 39.261719 63.324219 39.519531 63.835938 39.777344 C 66.085938 40.914062 68.328125 42.0625 70.550781 43.246094 C 73.824219 44.988281 77.148438 46.628906 80.464844 48.285156 C 81.351562 48.726562 82.238281 49.171875 83.128906 49.617188 C 84.683594 50.394531 86.242188 51.171875 87.796875 51.949219 C 88.542969 52.324219 89.285156 52.695312 90.03125 53.070312 C 90.039062 52.925781 90.050781 52.785156 90.058594 52.640625 C 90.242188 50.214844 90.675781 47.828125 91.085938 45.433594 C 91.167969 44.945312 91.25 44.453125 91.335938 43.960938 C 91.5625 42.636719 91.789062 41.3125 92.015625 39.984375 C 92.25 38.597656 92.488281 37.210938 92.722656 35.820312 C 93.121094 33.492188 93.515625 31.167969 93.914062 28.839844 C 94.375 26.144531 94.835938 23.449219 95.292969 20.757812 C 95.734375 18.164062 96.175781 15.570312 96.617188 12.980469 C 96.804688 11.875 96.992188 10.773438 97.183594 9.667969 C 97.402344 8.371094 97.625 7.074219 97.847656 5.78125 C 97.929688 5.300781 98.007812 4.824219 98.089844 4.347656 C 98.199219 3.699219 98.3125 3.050781 98.421875 2.402344 C 98.457031 2.210938 98.488281 2.019531 98.519531 1.824219 C 98.746094 0.53125 98.746094 0.53125 99.023438 0.25 Z M 99.023438 0.25 "/>
<path style=" stroke:none;fill-rule:nonzero;fill:rgb(99.607843%,0.392157%,0%);fill-opacity:1;" d="M 99.023438 0.25 C 99.578125 0.941406 99.953125 1.589844 100.28125 2.410156 C 100.425781 2.757812 100.425781 2.757812 100.570312 3.113281 C 100.667969 3.363281 100.769531 3.617188 100.871094 3.875 C 100.980469 4.140625 101.085938 4.40625 101.199219 4.679688 C 101.550781 5.554688 101.902344 6.429688 102.253906 7.308594 C 102.503906 7.917969 102.75 8.53125 102.996094 9.144531 C 103.445312 10.246094 103.890625 11.351562 104.332031 12.453125 C 105.390625 15.070312 106.453125 17.6875 107.519531 20.304688 C 107.828125 21.0625 108.140625 21.820312 108.449219 22.582031 C 110.269531 27.054688 112.09375 31.527344 113.921875 36 C 114.496094 37.402344 115.066406 38.804688 115.640625 40.207031 C 116.03125 41.164062 116.421875 42.125 116.8125 43.085938 C 117.003906 43.554688 117.195312 44.019531 117.386719 44.488281 C 118.316406 46.777344 119.253906 49.0625 120.203125 51.34375 C 120.277344 51.515625 120.347656 51.691406 120.421875 51.867188 C 120.75 52.660156 121.082031 53.449219 121.417969 54.238281 C 121.585938 54.640625 121.585938 54.640625 121.753906 55.050781 C 121.902344 55.394531 121.902344 55.394531 122.050781 55.746094 C 122.253906 56.324219 122.253906 56.324219 122.253906 57.074219 C 123.4375 55.964844 124.386719 54.710938 125.359375 53.414062 C 125.535156 53.183594 125.710938 52.949219 125.890625 52.710938 C 127.179688 51.003906 128.445312 49.277344 129.707031 47.550781 C 130.839844 46.011719 132.003906 44.5 133.183594 42.996094 C 134.367188 41.480469 135.507812 39.933594 136.644531 38.378906 C 137.738281 36.878906 138.859375 35.398438 139.988281 33.921875 C 141.269531 32.242188 142.535156 30.554688 143.78125 28.851562 C 145.011719 27.164062 146.261719 25.496094 147.535156 23.839844 C 148.226562 22.941406 148.910156 22.039062 149.582031 21.121094 C 149.71875 20.9375 149.855469 20.75 149.996094 20.558594 C 150.261719 20.199219 150.523438 19.839844 150.78125 19.480469 C 151.085938 19.070312 151.40625 18.671875 151.726562 18.273438 C 151.890625 18.273438 152.054688 18.273438 152.226562 18.273438 C 153.300781 23.769531 154.378906 29.261719 155.449219 34.757812 C 155.949219 37.308594 156.445312 39.859375 156.949219 42.410156 C 157.382812 44.632812 157.816406 46.855469 158.25 49.082031 C 158.480469 50.257812 158.710938 51.433594 158.941406 52.613281 C 159.160156 53.71875 159.375 54.828125 159.589844 55.9375 C 159.671875 56.34375 159.75 56.75 159.832031 57.15625 C 159.941406 57.710938 160.050781 58.269531 160.15625 58.824219 C 160.21875 59.132812 160.277344 59.445312 160.339844 59.765625 C 160.453125 60.472656 160.496094 61.117188 160.46875 61.832031 C 162.101562 60.960938 163.636719 59.992188 165.167969 58.953125 C 165.699219 58.597656 166.226562 58.238281 166.757812 57.882812 C 166.980469 57.734375 166.980469 57.734375 167.203125 57.582031 C 169.246094 56.214844 171.296875 54.863281 173.347656 53.511719 C 177.007812 51.097656 180.667969 48.675781 184.308594 46.234375 C 186.410156 44.828125 188.511719 43.429688 190.625 42.039062 C 190.855469 41.882812 191.089844 41.730469 191.328125 41.574219 C 192.277344 40.949219 193.226562 40.320312 194.175781 39.695312 C 196.574219 38.117188 198.96875 36.535156 201.332031 34.90625 C 201.511719 34.78125 201.695312 34.65625 201.886719 34.527344 C 202.730469 33.945312 203.574219 33.359375 204.417969 32.769531 C 204.710938 32.566406 205.003906 32.363281 205.296875 32.160156 C 205.546875 31.984375 205.796875 31.8125 206.054688 31.628906 C 206.261719 31.519531 206.464844 31.40625 206.675781 31.289062 C 206.925781 31.375 207.171875 31.457031 207.425781 31.539062 C 206.921875 33.066406 206.417969 34.589844 205.910156 36.113281 C 205.742188 36.625 205.570312 37.136719 205.402344 37.648438 C 204.214844 41.238281 203.003906 44.816406 201.785156 48.390625 C 199.953125 53.757812 198.144531 59.132812 196.335938 64.503906 C 195.921875 65.738281 195.507812 66.964844 195.09375 68.199219 C 194.292969 70.582031 193.492188 72.964844 192.691406 75.351562 C 195.878906 75.386719 199.039062 75.28125 202.222656 75.097656 C 202.710938 75.070312 203.195312 75.042969 203.683594 75.015625 C 204.722656 74.957031 205.761719 74.898438 206.796875 74.839844 C 208.445312 74.746094 210.089844 74.652344 211.734375 74.5625 C 214.929688 74.382812 218.125 74.203125 221.320312 74.023438 C 225.390625 73.792969 229.460938 73.5625 233.53125 73.335938 C 235.164062 73.246094 236.796875 73.152344 238.429688 73.058594 C 239.449219 73 240.464844 72.945312 241.484375 72.886719 C 241.953125 72.863281 242.421875 72.835938 242.890625 72.808594 C 245.558594 72.65625 248.214844 72.558594 250.886719 72.597656 C 250.15625 73.15625 249.441406 73.605469 248.621094 74.027344 C 248.367188 74.15625 248.117188 74.285156 247.859375 74.417969 C 247.59375 74.554688 247.324219 74.691406 247.046875 74.832031 C 245.003906 75.886719 242.972656 76.957031 240.960938 78.070312 C 238.679688 79.332031 236.371094 80.53125 234.058594 81.722656 C 232.078125 82.746094 230.109375 83.785156 228.160156 84.859375 C 225.898438 86.109375 223.613281 87.300781 221.316406 88.484375 C 219.121094 89.617188 216.9375 90.78125 214.773438 91.976562 C 212.519531 93.21875 210.234375 94.394531 207.945312 95.5625 C 207.652344 95.710938 207.363281 95.859375 207.066406 96.015625 C 206.808594 96.144531 206.554688 96.277344 206.289062 96.410156 C 205.554688 96.808594 204.839844 97.226562 204.125 97.660156 C 203.902344 97.792969 203.675781 97.929688 203.445312 98.066406 C 203.277344 98.171875 203.105469 98.273438 202.929688 98.378906 C 203.121094 98.472656 203.308594 98.566406 203.5 98.664062 C 208.09375 100.964844 212.683594 103.261719 217.273438 105.558594 C 219.496094 106.671875 221.714844 107.785156 223.933594 108.894531 C 225.871094 109.863281 227.804688 110.832031 229.742188 111.804688 C 230.765625 112.316406 231.789062 112.828125 232.8125 113.339844 C 233.78125 113.824219 234.746094 114.308594 235.710938 114.792969 C 236.0625 114.96875 236.417969 115.144531 236.769531 115.320312 C 238.582031 116.226562 240.386719 117.144531 242.144531 118.15625 C 242.144531 118.320312 242.144531 118.488281 242.144531 118.65625 C 235.921875 119.539062 229.699219 120.417969 223.476562 121.300781 C 220.589844 121.707031 217.699219 122.117188 214.808594 122.527344 C 212.292969 122.886719 209.773438 123.242188 207.257812 123.597656 C 205.921875 123.785156 204.589844 123.972656 203.253906 124.164062 C 202 124.34375 200.746094 124.519531 199.488281 124.695312 C 199.027344 124.761719 198.570312 124.824219 198.105469 124.890625 C 197.476562 124.980469 196.847656 125.070312 196.21875 125.160156 C 196.039062 125.183594 195.855469 125.210938 195.671875 125.238281 C 194.578125 125.390625 193.539062 125.4375 192.441406 125.414062 C 193.113281 126.628906 193.957031 127.691406 194.8125 128.78125 C 194.96875 128.980469 195.125 129.179688 195.289062 129.386719 C 195.753906 129.980469 196.21875 130.578125 196.6875 131.171875 C 196.925781 131.476562 197.164062 131.785156 197.40625 132.089844 C 197.730469 132.507812 198.058594 132.925781 198.390625 133.34375 C 199.324219 134.535156 200.253906 135.730469 201.183594 136.929688 C 202.566406 138.714844 203.953125 140.492188 205.347656 142.265625 C 205.6875 142.695312 206.023438 143.128906 206.363281 143.558594 C 206.476562 143.707031 206.589844 143.851562 206.707031 144 C 206.933594 144.289062 207.164062 144.582031 207.390625 144.871094 C 207.996094 145.644531 208.601562 146.414062 209.210938 147.183594 C 209.335938 147.34375 209.464844 147.507812 209.59375 147.671875 C 209.84375 147.984375 210.089844 148.296875 210.335938 148.605469 C 211.175781 149.667969 211.175781 149.667969 211.175781 149.945312 C 208.707031 149.789062 206.28125 149.433594 203.84375 149.050781 C 203.414062 148.984375 202.984375 148.921875 202.554688 148.855469 C 201.398438 148.675781 200.242188 148.496094 199.085938 148.316406 C 197.875 148.125 196.660156 147.9375 195.449219 147.75 C 193.414062 147.4375 191.378906 147.121094 189.34375 146.804688 C 186.734375 146.398438 184.121094 145.992188 181.511719 145.589844 C 179.261719 145.242188 177.011719 144.890625 174.765625 144.542969 C 174.042969 144.433594 173.320312 144.320312 172.601562 144.207031 C 171.46875 144.03125 170.335938 143.855469 169.203125 143.679688 C 168.789062 143.617188 168.371094 143.550781 167.957031 143.488281 C 167.390625 143.398438 166.820312 143.3125 166.253906 143.222656 C 165.9375 143.175781 165.621094 143.125 165.292969 143.074219 C 164.597656 142.960938 163.90625 142.832031 163.214844 142.6875 C 163.234375 142.851562 163.253906 143.019531 163.273438 143.1875 C 163.820312 148.148438 164.292969 153.113281 164.746094 158.082031 C 164.824219 158.917969 164.898438 159.753906 164.976562 160.589844 C 165.15625 162.558594 165.335938 164.527344 165.515625 166.492188 C 165.703125 168.515625 165.886719 170.539062 166.070312 172.5625 C 166.234375 174.3125 166.394531 176.0625 166.550781 177.8125 C 166.648438 178.851562 166.742188 179.894531 166.839844 180.933594 C 166.925781 181.90625 167.015625 182.878906 167.105469 183.851562 C 167.136719 184.207031 167.167969 184.5625 167.203125 184.917969 C 167.246094 185.40625 167.289062 185.890625 167.335938 186.378906 C 167.371094 186.789062 167.371094 186.789062 167.410156 187.203125 C 167.464844 188.054688 167.472656 188.898438 167.460938 189.75 C 166.128906 188.695312 165.101562 187.539062 164.046875 186.210938 C 163.496094 185.53125 162.929688 184.886719 162.339844 184.242188 C 161.585938 183.410156 160.863281 182.566406 160.15625 181.691406 C 158.855469 180.082031 157.492188 178.523438 156.132812 176.957031 C 155.488281 176.210938 154.847656 175.464844 154.210938 174.714844 C 154.085938 174.570312 153.964844 174.425781 153.835938 174.28125 C 153.589844 173.988281 153.34375 173.699219 153.097656 173.410156 C 152.597656 172.828125 152.101562 172.246094 151.601562 171.664062 C 151.351562 171.371094 151.105469 171.082031 150.855469 170.789062 C 150.222656 170.046875 149.585938 169.308594 148.953125 168.570312 C 147.808594 167.234375 146.667969 165.898438 145.5625 164.53125 C 144.671875 163.433594 143.746094 162.386719 142.796875 161.34375 C 142.019531 160.464844 141.285156 159.550781 140.550781 158.640625 C 140.003906 157.976562 139.441406 157.339844 138.863281 156.707031 C 138.109375 155.875 137.382812 155.03125 136.679688 154.15625 C 135.375 152.542969 134.015625 150.984375 132.65625 149.421875 C 132.011719 148.675781 131.371094 147.925781 130.730469 147.175781 C 130.609375 147.035156 130.488281 146.894531 130.363281 146.746094 C 129.988281 146.3125 129.617188 145.878906 129.246094 145.441406 C 126.886719 142.675781 126.886719 142.675781 124.5 139.933594 C 123.257812 141.15625 122.058594 142.390625 120.921875 143.714844 C 120.382812 144.328125 119.800781 144.898438 119.214844 145.472656 C 118.773438 145.925781 118.359375 146.390625 117.945312 146.871094 C 117.019531 147.9375 116.058594 148.96875 115.085938 149.992188 C 113.878906 151.277344 112.671875 152.5625 111.480469 153.859375 C 109.6875 155.8125 107.878906 157.75 106.070312 159.6875 C 103.28125 162.679688 100.496094 165.671875 97.773438 168.722656 C 97.226562 168.171875 97.109375 167.84375 96.863281 167.117188 C 96.746094 166.769531 96.746094 166.769531 96.628906 166.417969 C 96.542969 166.164062 96.460938 165.910156 96.375 165.648438 C 96.285156 165.382812 96.195312 165.117188 96.105469 164.847656 C 95.914062 164.273438 95.722656 163.703125 95.53125 163.128906 C 95.023438 161.609375 94.511719 160.089844 94 158.570312 C 93.84375 158.109375 93.84375 158.109375 93.6875 157.640625 C 92.746094 154.851562 91.785156 152.070312 90.8125 149.289062 C 90.511719 148.425781 90.207031 147.566406 89.90625 146.703125 C 89.835938 146.492188 89.761719 146.285156 89.6875 146.074219 C 88.453125 142.53125 87.246094 138.980469 86.035156 135.425781 C 83.46875 136.371094 80.976562 137.460938 78.480469 138.578125 C 77.289062 139.109375 76.09375 139.640625 74.902344 140.171875 C 74.660156 140.277344 74.417969 140.386719 74.167969 140.496094 C 71.90625 141.5 69.636719 142.488281 67.363281 143.46875 C 66.609375 143.796875 65.851562 144.125 65.09375 144.453125 C 64.90625 144.53125 64.722656 144.613281 64.527344 144.695312 C 62.339844 145.640625 60.152344 146.597656 57.964844 147.554688 C 57.765625 147.640625 57.5625 147.730469 57.351562 147.820312 C 56.328125 148.269531 55.304688 148.714844 54.28125 149.164062 C 52.289062 150.035156 50.296875 150.90625 48.304688 151.777344 C 48.105469 151.863281 47.90625 151.953125 47.703125 152.039062 C 44.085938 153.621094 40.464844 155.199219 36.84375 156.773438 C 33.511719 158.226562 30.183594 159.679688 26.855469 161.132812 C 26.453125 161.308594 26.054688 161.484375 25.652344 161.65625 C 23.867188 162.4375 22.078125 163.21875 20.292969 164.003906 C 17.867188 165.066406 15.441406 166.125 13.011719 167.183594 C 12.3125 167.488281 11.609375 167.792969 10.910156 168.097656 C 9.6875 168.632812 8.464844 169.164062 7.238281 169.695312 C 6.765625 169.902344 6.296875 170.105469 5.824219 170.3125 C 5.167969 170.597656 4.515625 170.882812 3.859375 171.164062 C 3.664062 171.25 3.46875 171.335938 3.269531 171.425781 C 2.804688 171.625 2.332031 171.800781 1.859375 171.976562 C 1.695312 171.894531 1.53125 171.808594 1.359375 171.726562 C 3.441406 169.761719 5.519531 167.800781 7.605469 165.84375 C 8.980469 164.550781 10.355469 163.257812 11.726562 161.960938 C 13.261719 160.511719 14.800781 159.066406 16.34375 157.617188 C 17.554688 156.480469 18.761719 155.34375 19.96875 154.203125 C 22.171875 152.125 24.375 150.050781 26.582031 147.980469 C 28.636719 146.050781 30.691406 144.117188 32.742188 142.183594 C 34.101562 140.902344 35.464844 139.621094 36.824219 138.34375 C 38.035156 137.207031 39.242188 136.066406 40.449219 134.929688 C 42.15625 133.320312 43.863281 131.710938 45.574219 130.105469 C 46.257812 129.464844 46.941406 128.824219 47.621094 128.179688 C 49.417969 126.484375 51.21875 124.800781 53.066406 123.164062 C 51.785156 122.828125 50.523438 122.550781 49.21875 122.339844 C 49.042969 122.3125 48.867188 122.285156 48.6875 122.253906 C 48.109375 122.160156 47.527344 122.066406 46.949219 121.972656 C 46.527344 121.90625 46.109375 121.835938 45.691406 121.769531 C 44.5625 121.585938 43.425781 121.402344 42.292969 121.21875 C 41.105469 121.027344 39.914062 120.835938 38.722656 120.640625 C 36.71875 120.316406 34.714844 119.992188 32.714844 119.667969 C 29.90625 119.21875 27.097656 118.761719 24.289062 118.304688 C 20.507812 117.695312 16.730469 117.085938 12.953125 116.472656 C 12.546875 116.410156 12.140625 116.34375 11.738281 116.277344 C 8.863281 115.8125 5.984375 115.355469 3.109375 114.902344 C 3.414062 113.980469 3.664062 113.890625 4.476562 113.398438 C 4.710938 113.25 4.949219 113.101562 5.195312 112.953125 C 5.453125 112.796875 5.714844 112.636719 5.980469 112.476562 C 6.53125 112.136719 7.082031 111.796875 7.632812 111.457031 C 7.777344 111.371094 7.917969 111.28125 8.0625 111.191406 C 9.558594 110.273438 11.03125 109.328125 12.507812 108.375 C 13.03125 108.039062 13.554688 107.703125 14.078125 107.367188 C 14.332031 107.203125 14.585938 107.039062 14.847656 106.871094 C 16.011719 106.125 17.179688 105.378906 18.34375 104.636719 C 20.304688 103.390625 22.261719 102.136719 24.214844 100.882812 C 26.1875 99.617188 28.15625 98.355469 30.132812 97.097656 C 30.46875 96.882812 30.46875 96.882812 30.808594 96.664062 C 31.9375 95.945312 33.066406 95.226562 34.195312 94.507812 C 37.503906 92.40625 40.792969 90.269531 44.074219 88.117188 C 42.433594 86.988281 40.75 85.964844 39.03125 84.96875 C 38.496094 84.660156 37.957031 84.347656 37.421875 84.035156 C 37.152344 83.878906 36.886719 83.726562 36.609375 83.566406 C 35.457031 82.890625 34.308594 82.210938 33.160156 81.53125 C 31.015625 80.253906 28.863281 78.988281 26.714844 77.726562 C 24.367188 76.351562 22.027344 74.96875 19.6875 73.582031 C 17.8125 72.472656 15.933594 71.367188 14.050781 70.265625 C 11.328125 68.667969 8.613281 67.058594 5.902344 65.445312 C 5.644531 65.292969 5.386719 65.140625 5.121094 64.984375 C 4.875 64.832031 4.625 64.6875 4.371094 64.535156 C 3.832031 64.21875 3.292969 63.90625 2.75 63.597656 C 2.476562 63.441406 2.199219 63.285156 1.914062 63.125 C 1.664062 62.984375 1.414062 62.84375 1.15625 62.699219 C 0.976562 62.578125 0.796875 62.457031 0.609375 62.332031 C 0.609375 62.167969 0.609375 62.003906 0.609375 61.832031 C 6.960938 62.238281 13.300781 62.820312 19.636719 63.386719 C 21.195312 63.523438 22.75 63.664062 24.308594 63.800781 C 27.082031 64.046875 29.851562 64.292969 32.625 64.539062 C 35.132812 64.761719 37.640625 64.984375 40.152344 65.207031 C 40.316406 65.222656 40.480469 65.238281 40.652344 65.253906 C 40.898438 65.273438 40.898438 65.273438 41.152344 65.296875 C 44.371094 65.582031 47.589844 65.867188 50.808594 66.152344 C 51.730469 66.234375 52.652344 66.316406 53.578125 66.398438 C 55.023438 66.53125 56.472656 66.65625 57.921875 66.785156 C 58.453125 66.832031 58.984375 66.882812 59.511719 66.929688 C 60.238281 66.992188 60.964844 67.054688 61.6875 67.121094 C 61.898438 67.140625 62.105469 67.15625 62.320312 67.179688 C 63.648438 67.296875 64.976562 67.4375 66.300781 67.589844 C 66.230469 67.375 66.160156 67.164062 66.089844 66.945312 C 63.957031 60.550781 61.847656 54.148438 59.742188 47.746094 C 59.324219 46.476562 58.90625 45.207031 58.488281 43.9375 C 57.679688 41.476562 56.871094 39.011719 56.0625 36.546875 C 56.8125 36.296875 56.8125 36.296875 57.304688 36.46875 C 57.492188 36.5625 57.679688 36.660156 57.875 36.757812 C 58.195312 36.917969 58.195312 36.917969 58.527344 37.082031 C 58.757812 37.203125 58.992188 37.320312 59.230469 37.445312 C 59.59375 37.628906 59.59375 37.628906 59.964844 37.816406 C 60.746094 38.207031 61.527344 38.605469 62.308594 39.003906 C 62.816406 39.261719 63.324219 39.519531 63.835938 39.777344 C 66.085938 40.914062 68.328125 42.0625 70.550781 43.246094 C 73.824219 44.988281 77.148438 46.628906 80.464844 48.285156 C 81.351562 48.726562 82.238281 49.171875 83.128906 49.617188 C 84.683594 50.394531 86.242188 51.171875 87.796875 51.949219 C 88.542969 52.324219 89.285156 52.695312 90.03125 53.070312 C 90.039062 52.925781 90.050781 52.785156 90.058594 52.640625 C 90.242188 50.214844 90.675781 47.828125 91.085938 45.433594 C 91.167969 44.945312 91.25 44.453125 91.335938 43.960938 C 91.5625 42.636719 91.789062 41.3125 92.015625 39.984375 C 92.25 38.597656 92.488281 37.210938 92.722656 35.820312 C 93.121094 33.492188 93.515625 31.167969 93.914062 28.839844 C 94.375 26.144531 94.835938 23.449219 95.292969 20.757812 C 95.734375 18.164062 96.175781 15.570312 96.617188 12.980469 C 96.804688 11.875 96.992188 10.773438 97.183594 9.667969 C 97.402344 8.371094 97.625 7.074219 97.847656 5.78125 C 97.929688 5.300781 98.007812 4.824219 98.089844 4.347656 C 98.199219 3.699219 98.3125 3.050781 98.421875 2.402344 C 98.457031 2.210938 98.488281 2.019531 98.519531 1.824219 C 98.746094 0.53125 98.746094 0.53125 99.023438 0.25 Z M 101.023438 19.277344 C 100.402344 22.464844 99.820312 25.660156 99.3125 28.871094 C 99.125 30.035156 98.9375 31.199219 98.75 32.363281 C 98.710938 32.601562 98.671875 32.84375 98.632812 33.09375 C 98.203125 35.75 97.753906 38.40625 97.300781 41.058594 C 97.261719 41.296875 97.21875 41.535156 97.179688 41.777344 C 96.933594 43.210938 96.691406 44.640625 96.445312 46.070312 C 96.195312 47.542969 95.945312 49.011719 95.695312 50.484375 C 95.5 51.625 95.304688 52.761719 95.109375 53.902344 C 94.945312 54.875 94.78125 55.84375 94.613281 56.816406 C 94.53125 57.296875 94.449219 57.777344 94.367188 58.257812 C 94.320312 58.527344 94.273438 58.796875 94.226562 59.078125 C 94.1875 59.304688 94.148438 59.53125 94.109375 59.765625 C 94.007812 60.359375 94.007812 60.359375 94.027344 61.078125 C 93.835938 60.980469 93.640625 60.882812 93.445312 60.78125 C 92.726562 60.417969 92.011719 60.054688 91.292969 59.6875 C 90.984375 59.53125 90.675781 59.375 90.363281 59.214844 C 89.917969 58.988281 89.472656 58.761719 89.027344 58.539062 C 88.761719 58.402344 88.492188 58.265625 88.214844 58.125 C 87.542969 57.777344 87.542969 57.777344 86.785156 57.828125 C 86.785156 57.660156 86.785156 57.496094 86.785156 57.324219 C 86.535156 57.199219 86.289062 57.078125 86.03125 56.949219 C 83.691406 55.777344 81.347656 54.605469 79.007812 53.433594 C 77.804688 52.832031 76.601562 52.230469 75.394531 51.628906 C 74.234375 51.046875 73.074219 50.464844 71.914062 49.882812 C 71.46875 49.664062 71.027344 49.441406 70.582031 49.21875 C 69.960938 48.910156 69.339844 48.597656 68.722656 48.289062 C 68.539062 48.195312 68.355469 48.105469 68.164062 48.011719 C 67.429688 47.640625 66.738281 47.269531 66.054688 46.8125 C 65.804688 46.8125 65.558594 46.8125 65.304688 46.8125 C 65.617188 48.34375 66.019531 49.820312 66.511719 51.300781 C 66.617188 51.621094 66.617188 51.621094 66.722656 51.941406 C 66.949219 52.632812 67.179688 53.324219 67.410156 54.015625 C 67.570312 54.5 67.730469 54.984375 67.890625 55.46875 C 68.308594 56.742188 68.730469 58.011719 69.152344 59.285156 C 69.824219 61.320312 70.496094 63.351562 71.167969 65.386719 C 71.402344 66.09375 71.636719 66.800781 71.871094 67.507812 C 72.015625 67.949219 72.160156 68.386719 72.304688 68.824219 C 72.367188 69.015625 72.433594 69.210938 72.5 69.410156 C 72.957031 70.796875 73.382812 72.195312 73.796875 73.597656 C 73.546875 73.574219 73.300781 73.554688 73.046875 73.53125 C 67.046875 72.996094 61.042969 72.464844 55.042969 71.933594 C 52.140625 71.675781 49.238281 71.417969 46.335938 71.160156 C 43.804688 70.933594 41.277344 70.710938 38.746094 70.484375 C 37.40625 70.367188 36.066406 70.25 34.726562 70.128906 C 33.46875 70.015625 32.207031 69.90625 30.945312 69.792969 C 30.480469 69.753906 30.019531 69.710938 29.558594 69.671875 C 28.925781 69.613281 28.292969 69.558594 27.660156 69.503906 C 27.476562 69.488281 27.296875 69.46875 27.109375 69.453125 C 25.929688 69.351562 24.773438 69.328125 23.589844 69.339844 C 24.414062 70.265625 25.25 70.789062 26.339844 71.34375 C 26.585938 71.34375 26.832031 71.34375 27.085938 71.34375 C 27.085938 71.507812 27.085938 71.675781 27.085938 71.84375 C 27.652344 72.179688 28.222656 72.515625 28.789062 72.84375 C 28.949219 72.941406 29.109375 73.035156 29.277344 73.136719 C 30.238281 73.703125 30.238281 73.703125 31.332031 73.847656 C 31.332031 74.011719 31.332031 74.175781 31.332031 74.347656 C 31.515625 74.453125 31.699219 74.558594 31.890625 74.667969 C 32.585938 75.070312 33.277344 75.46875 33.972656 75.871094 C 34.269531 76.039062 34.566406 76.214844 34.863281 76.386719 C 35.296875 76.632812 35.730469 76.886719 36.164062 77.136719 C 36.445312 77.296875 36.726562 77.460938 37.015625 77.628906 C 37.964844 78.183594 38.898438 78.757812 39.824219 79.34375 C 40.34375 79.660156 40.34375 79.660156 41.074219 79.605469 C 41.074219 79.769531 41.074219 79.9375 41.074219 80.105469 C 41.640625 80.441406 42.207031 80.773438 42.777344 81.105469 C 42.9375 81.203125 43.097656 81.296875 43.261719 81.398438 C 44.226562 81.964844 44.226562 81.964844 45.320312 82.109375 C 45.320312 82.273438 45.320312 82.4375 45.320312 82.609375 C 45.886719 82.945312 46.453125 83.277344 47.023438 83.609375 C 47.183594 83.707031 47.34375 83.800781 47.507812 83.898438 C 48.472656 84.46875 48.472656 84.46875 49.566406 84.609375 C 49.566406 84.777344 49.566406 84.941406 49.566406 85.113281 C 50.132812 85.449219 50.703125 85.78125 51.269531 86.113281 C 51.429688 86.207031 51.589844 86.304688 51.753906 86.402344 C 52.71875 86.972656 52.71875 86.972656 53.8125 87.113281 C 53.8125 87.28125 53.8125 87.445312 53.8125 87.613281 C 54.0625 87.613281 54.308594 87.613281 54.5625 87.613281 C 54.5625 87.78125 54.5625 87.945312 54.5625 88.117188 C 54.316406 88.199219 54.316406 88.199219 54.066406 88.285156 C 53.0625 88.726562 52.175781 89.304688 51.253906 89.898438 C 51.046875 90.03125 50.84375 90.160156 50.632812 90.296875 C 49.945312 90.738281 49.253906 91.179688 48.570312 91.621094 C 48.066406 91.941406 47.5625 92.265625 47.0625 92.585938 C 46.003906 93.265625 44.949219 93.941406 43.890625 94.621094 C 41.316406 96.273438 38.738281 97.914062 36.15625 99.558594 C 33.507812 101.246094 30.855469 102.941406 28.210938 104.636719 C 26.167969 105.949219 24.125 107.257812 22.078125 108.5625 C 21.855469 108.707031 21.632812 108.847656 21.40625 108.992188 C 21.195312 109.125 20.988281 109.257812 20.773438 109.394531 C 20.574219 109.523438 20.378906 109.648438 20.171875 109.78125 C 19.785156 110.023438 19.390625 110.265625 18.996094 110.503906 C 18.722656 110.667969 18.722656 110.667969 18.441406 110.835938 C 18.195312 110.984375 18.195312 110.984375 17.945312 111.128906 C 17.832031 111.21875 17.714844 111.304688 17.597656 111.394531 C 17.597656 111.5625 17.597656 111.726562 17.597656 111.898438 C 17.769531 111.921875 17.945312 111.945312 18.125 111.972656 C 23.304688 112.703125 28.46875 113.523438 33.628906 114.367188 C 33.796875 114.394531 33.964844 114.421875 34.136719 114.449219 C 36.214844 114.789062 38.292969 115.128906 40.367188 115.46875 C 43.203125 115.933594 46.035156 116.398438 48.867188 116.859375 C 50.019531 117.046875 51.167969 117.234375 52.316406 117.425781 C 52.910156 117.519531 53.503906 117.617188 54.097656 117.714844 C 54.371094 117.761719 54.644531 117.804688 54.925781 117.851562 C 55.292969 117.914062 55.292969 117.914062 55.671875 117.972656 C 55.886719 118.007812 56.101562 118.042969 56.324219 118.082031 C 56.769531 118.160156 56.769531 118.160156 57.0625 118.15625 C 57.0625 106.507812 57.0625 94.859375 57.0625 82.859375 C 76.761719 83.1875 76.761719 83.1875 79.792969 85.863281 C 81.578125 88.355469 81.859375 90.863281 81.539062 93.871094 C 81.039062 95.730469 79.886719 97.085938 78.292969 98.128906 C 77.164062 98.6875 76.019531 99.09375 74.796875 99.382812 C 74.796875 99.546875 74.796875 99.710938 74.796875 99.882812 C 75.171875 99.996094 75.171875 99.996094 75.554688 100.113281 C 77.339844 100.671875 78.820312 101.183594 80.289062 102.386719 C 80.457031 102.386719 80.621094 102.386719 80.789062 102.386719 C 80.851562 102.511719 80.914062 102.640625 80.976562 102.773438 C 81.304688 103.414062 81.667969 104.027344 82.039062 104.644531 C 83.164062 106.871094 83.039062 109.242188 82.382812 111.597656 C 81.613281 113.839844 80.351562 115.464844 78.292969 116.652344 C 75.492188 117.953125 72.996094 118.1875 69.957031 118.234375 C 69.519531 118.242188 69.519531 118.242188 69.074219 118.25 C 68.152344 118.265625 67.226562 118.28125 66.300781 118.296875 C 65.675781 118.304688 65.046875 118.316406 64.417969 118.328125 C 62.878906 118.355469 61.34375 118.382812 59.808594 118.40625 C 60.722656 119.015625 61.539062 119.074219 62.601562 119.1875 C 62.789062 119.210938 62.976562 119.230469 63.171875 119.253906 C 63.632812 119.308594 64.09375 119.355469 64.554688 119.40625 C 64.378906 119.582031 64.203125 119.757812 64.019531 119.941406 C 63.542969 120.417969 63.070312 120.898438 62.597656 121.378906 C 61.359375 122.632812 60.117188 123.859375 58.773438 125.003906 C 58.085938 125.613281 57.453125 126.269531 56.8125 126.925781 C 56.171875 127.554688 55.492188 128.136719 54.8125 128.722656 C 54.292969 129.1875 53.804688 129.675781 53.316406 130.171875 C 52.675781 130.820312 52.023438 131.4375 51.332031 132.035156 C 50.585938 132.675781 49.882812 133.347656 49.191406 134.050781 C 48.347656 134.910156 47.476562 135.707031 46.5625 136.492188 C 46.042969 136.953125 45.558594 137.4375 45.070312 137.933594 C 44.433594 138.582031 43.78125 139.199219 43.089844 139.792969 C 42.34375 140.4375 41.640625 141.109375 40.949219 141.8125 C 40.105469 142.667969 39.230469 143.46875 38.320312 144.253906 C 37.625 144.871094 36.980469 145.535156 36.328125 146.199219 C 35.691406 146.832031 35.011719 147.414062 34.332031 148 C 33.8125 148.464844 33.320312 148.949219 32.832031 149.445312 C 32.195312 150.097656 31.542969 150.714844 30.851562 151.308594 C 29.703125 152.296875 28.644531 153.371094 27.585938 154.453125 C 27.753906 154.535156 27.917969 154.617188 28.085938 154.703125 C 28.679688 154.488281 29.242188 154.257812 29.816406 154 C 29.992188 153.921875 30.171875 153.847656 30.355469 153.765625 C 30.945312 153.507812 31.539062 153.242188 32.128906 152.980469 C 32.546875 152.800781 32.964844 152.617188 33.378906 152.433594 C 34.253906 152.050781 35.128906 151.667969 36.003906 151.28125 C 37.277344 150.71875 38.550781 150.164062 39.828125 149.609375 C 43.789062 147.878906 47.746094 146.148438 51.699219 144.410156 C 54.222656 143.304688 56.746094 142.207031 59.273438 141.109375 C 61.703125 140.058594 64.128906 138.996094 66.550781 137.933594 C 69.285156 136.730469 72.015625 135.539062 74.753906 134.351562 C 76.566406 133.566406 78.375 132.78125 80.183594 131.988281 C 80.453125 131.867188 80.453125 131.867188 80.726562 131.75 C 81.585938 131.371094 82.449219 130.988281 83.3125 130.609375 C 85.210938 129.777344 87.113281 128.960938 89.03125 128.167969 C 89.828125 130.09375 90.519531 132.046875 91.191406 134.015625 C 91.300781 134.339844 91.414062 134.664062 91.523438 134.988281 C 91.757812 135.675781 91.992188 136.363281 92.226562 137.050781 C 92.78125 138.671875 93.332031 140.289062 93.886719 141.90625 C 94.011719 142.269531 94.132812 142.632812 94.257812 142.996094 C 95.453125 146.484375 96.65625 149.96875 97.867188 153.453125 C 97.953125 153.699219 98.039062 153.945312 98.128906 154.203125 C 98.59375 155.539062 99.058594 156.871094 99.523438 158.207031 C 100.265625 158.289062 100.265625 158.289062 100.675781 157.871094 C 100.820312 157.710938 100.964844 157.554688 101.113281 157.390625 C 101.359375 157.128906 101.359375 157.128906 101.605469 156.859375 C 101.78125 156.671875 101.953125 156.480469 102.128906 156.285156 C 102.308594 156.089844 102.488281 155.894531 102.671875 155.695312 C 103.207031 155.117188 103.738281 154.535156 104.269531 153.953125 C 104.535156 153.664062 104.800781 153.375 105.066406 153.085938 C 105.425781 152.699219 105.78125 152.308594 106.140625 151.921875 C 107.132812 150.839844 108.136719 149.765625 109.140625 148.695312 C 110.273438 147.484375 111.40625 146.273438 112.527344 145.050781 C 114.324219 143.09375 116.140625 141.148438 117.953125 139.203125 C 118.253906 138.886719 118.550781 138.566406 118.847656 138.246094 C 119.136719 137.933594 119.429688 137.621094 119.722656 137.308594 C 120.4375 136.539062 121.152344 135.769531 121.855469 134.988281 C 121.992188 134.839844 122.125 134.6875 122.265625 134.535156 C 122.519531 134.25 122.773438 133.96875 123.027344 133.683594 C 123.628906 133.015625 124.152344 132.503906 125 132.171875 C 127.25 134.804688 129.496094 137.429688 131.746094 140.058594 C 131.867188 140.203125 131.992188 140.347656 132.117188 140.496094 C 132.367188 140.789062 132.617188 141.082031 132.867188 141.371094 C 133.5 142.113281 134.132812 142.851562 134.769531 143.589844 C 135.914062 144.925781 137.054688 146.261719 138.160156 147.632812 C 139.046875 148.726562 139.976562 149.773438 140.921875 150.816406 C 141.703125 151.695312 142.433594 152.609375 143.171875 153.523438 C 143.71875 154.183594 144.28125 154.820312 144.859375 155.453125 C 145.613281 156.285156 146.335938 157.132812 147.042969 158.003906 C 148.347656 159.617188 149.707031 161.175781 151.066406 162.738281 C 152.085938 163.917969 153.09375 165.101562 154.101562 166.285156 C 154.480469 166.726562 154.855469 167.164062 155.230469 167.605469 C 155.355469 167.75 155.480469 167.894531 155.609375 168.046875 C 155.859375 168.339844 156.109375 168.628906 156.359375 168.921875 C 156.996094 169.664062 157.628906 170.410156 158.253906 171.160156 C 158.378906 171.308594 158.503906 171.460938 158.632812 171.613281 C 158.875 171.902344 159.113281 172.1875 159.351562 172.476562 C 159.945312 173.207031 159.945312 173.207031 160.71875 173.726562 C 160.171875 166.613281 159.523438 159.511719 158.859375 152.40625 C 158.714844 150.871094 158.574219 149.335938 158.429688 147.800781 C 158.320312 146.609375 158.207031 145.414062 158.097656 144.21875 C 158.042969 143.652344 157.992188 143.085938 157.9375 142.515625 C 157.863281 141.734375 157.792969 140.949219 157.71875 140.164062 C 157.695312 139.933594 157.675781 139.703125 157.652344 139.464844 C 157.546875 138.359375 157.421875 137.273438 157.222656 136.179688 C 157.472656 136.25 157.726562 136.320312 157.984375 136.390625 C 159.640625 136.804688 161.332031 137.035156 163.015625 137.292969 C 163.398438 137.351562 163.78125 137.410156 164.164062 137.472656 C 165.203125 137.632812 166.238281 137.792969 167.273438 137.953125 C 168.140625 138.085938 169.003906 138.21875 169.871094 138.351562 C 171.910156 138.667969 173.949219 138.984375 175.992188 139.296875 C 178.097656 139.621094 180.203125 139.949219 182.308594 140.277344 C 184.117188 140.554688 185.925781 140.835938 187.738281 141.113281 C 188.816406 141.28125 189.898438 141.449219 190.976562 141.617188 C 191.992188 141.773438 193.003906 141.929688 194.019531 142.085938 C 194.390625 142.144531 194.765625 142.203125 195.136719 142.261719 C 195.644531 142.339844 196.152344 142.417969 196.660156 142.492188 C 196.945312 142.535156 197.226562 142.582031 197.519531 142.625 C 198.179688 142.746094 198.179688 142.746094 198.683594 142.4375 C 196.257812 139.304688 196.257812 139.304688 193.8125 136.179688 C 192.617188 134.652344 191.425781 133.121094 190.242188 131.589844 C 189.355469 130.449219 188.464844 129.304688 187.570312 128.167969 C 186.476562 126.773438 185.382812 125.375 184.292969 123.976562 C 184.136719 123.777344 183.984375 123.582031 183.824219 123.378906 C 183.683594 123.195312 183.539062 123.011719 183.390625 122.820312 C 183.261719 122.65625 183.136719 122.492188 183.003906 122.324219 C 182.699219 121.910156 182.699219 121.910156 182.449219 121.410156 C 182.734375 121.414062 183.023438 121.421875 183.320312 121.425781 C 184.402344 121.425781 185.4375 121.308594 186.507812 121.152344 C 186.703125 121.121094 186.898438 121.09375 187.101562 121.066406 C 187.753906 120.972656 188.402344 120.878906 189.054688 120.785156 C 189.519531 120.71875 189.984375 120.652344 190.449219 120.585938 C 191.699219 120.410156 192.945312 120.230469 194.195312 120.050781 C 195.488281 119.863281 196.78125 119.679688 198.074219 119.496094 C 200.433594 119.160156 202.796875 118.820312 205.15625 118.480469 C 207.503906 118.144531 209.851562 117.808594 212.199219 117.472656 C 216.4375 116.867188 220.675781 116.261719 224.914062 115.652344 C 224.382812 115.078125 223.890625 114.71875 223.195312 114.371094 C 222.996094 114.273438 222.800781 114.175781 222.601562 114.074219 C 222.386719 113.96875 222.171875 113.859375 221.953125 113.753906 C 221.722656 113.640625 221.496094 113.527344 221.265625 113.410156 C 220.515625 113.035156 219.761719 112.660156 219.011719 112.285156 C 218.484375 112.023438 217.960938 111.761719 217.433594 111.5 C 216.046875 110.808594 214.660156 110.117188 213.273438 109.425781 C 211.0625 108.328125 208.859375 107.226562 206.652344 106.125 C 205.886719 105.742188 205.121094 105.363281 204.359375 104.980469 C 201.890625 103.753906 199.433594 102.507812 197.003906 101.207031 C 195.429688 100.367188 193.824219 99.601562 192.191406 98.878906 C 192.058594 99.027344 191.921875 99.175781 191.785156 99.328125 C 188.734375 102.574219 184.953125 103.339844 180.632812 103.488281 C 179.921875 103.507812 179.210938 103.527344 178.5 103.542969 C 177.246094 103.574219 175.996094 103.605469 174.707031 103.636719 C 174.707031 108.59375 174.707031 113.550781 174.707031 118.65625 C 172.644531 118.65625 170.585938 118.65625 168.460938 118.65625 C 168.460938 106.84375 168.460938 95.03125 168.460938 82.859375 C 188.371094 83.195312 188.371094 83.195312 191.441406 86.363281 C 192.886719 88.347656 193.527344 90.132812 193.488281 92.574219 C 193.484375 92.773438 193.484375 92.972656 193.480469 93.179688 C 193.464844 94.507812 193.382812 95.808594 193.191406 97.128906 C 194.328125 96.78125 195.351562 96.316406 196.394531 95.75 C 196.640625 95.621094 196.640625 95.621094 196.886719 95.488281 C 197.425781 95.199219 197.960938 94.914062 198.496094 94.625 C 198.878906 94.421875 199.257812 94.21875 199.636719 94.015625 C 200.425781 93.59375 201.21875 93.171875 202.007812 92.75 C 203.636719 91.878906 205.269531 91.011719 206.902344 90.144531 C 207.609375 89.773438 208.3125 89.398438 209.011719 89.027344 C 210.445312 88.265625 211.875 87.507812 213.304688 86.75 C 217.929688 84.300781 222.550781 81.835938 227.160156 79.355469 C 227.160156 79.273438 227.160156 79.191406 227.160156 79.105469 C 225.136719 79.203125 223.109375 79.300781 221.085938 79.402344 C 220.765625 79.417969 220.449219 79.433594 220.117188 79.449219 C 215.5 79.675781 210.882812 79.925781 206.265625 80.183594 C 205.753906 80.210938 205.242188 80.242188 204.734375 80.269531 C 202.449219 80.398438 200.164062 80.527344 197.878906 80.65625 C 196.914062 80.710938 195.953125 80.765625 194.988281 80.820312 C 194.539062 80.847656 194.09375 80.871094 193.644531 80.898438 C 190.824219 81.0625 188.019531 81.140625 185.195312 81.105469 C 185.796875 79.257812 186.398438 77.40625 187 75.558594 C 187.28125 74.699219 187.5625 73.839844 187.839844 72.980469 C 188.109375 72.148438 188.378906 71.316406 188.652344 70.488281 C 188.804688 70.019531 188.953125 69.550781 189.105469 69.085938 C 189.59375 67.59375 190.113281 66.128906 190.707031 64.679688 C 191.113281 63.648438 191.457031 62.59375 191.804688 61.542969 C 191.921875 61.191406 191.921875 61.191406 192.042969 60.832031 C 192.207031 60.335938 192.371094 59.839844 192.535156 59.34375 C 192.78125 58.601562 193.027344 57.859375 193.273438 57.121094 C 194.105469 54.617188 194.921875 52.109375 195.699219 49.589844 C 196.070312 48.394531 196.488281 47.234375 196.996094 46.085938 C 197.234375 45.421875 197.324219 44.753906 197.4375 44.058594 C 194.847656 45.480469 192.433594 47.140625 189.996094 48.800781 C 188.789062 49.625 187.582031 50.441406 186.375 51.261719 C 186.136719 51.421875 185.898438 51.582031 185.65625 51.746094 C 183.9375 52.910156 182.207031 54.0625 180.46875 55.195312 C 177.59375 57.070312 174.726562 58.953125 171.867188 60.847656 C 171.632812 61 171.394531 61.15625 171.15625 61.316406 C 168.605469 63 166.054688 64.6875 163.515625 66.386719 C 163.304688 66.53125 163.09375 66.671875 162.875 66.816406 C 161.878906 67.484375 160.878906 68.15625 159.882812 68.824219 C 159.53125 69.0625 159.179688 69.296875 158.828125 69.535156 C 158.585938 69.695312 158.585938 69.695312 158.339844 69.863281 C 157.25 70.59375 157.25 70.59375 156.972656 70.59375 C 156.929688 70.375 156.886719 70.15625 156.84375 69.929688 C 155.722656 64.15625 154.601562 58.390625 153.480469 52.621094 C 153.101562 50.6875 152.726562 48.757812 152.351562 46.824219 C 152.144531 45.769531 151.941406 44.714844 151.734375 43.660156 C 151.652344 43.234375 151.570312 42.808594 151.484375 42.382812 C 151.421875 42.058594 151.421875 42.058594 151.359375 41.726562 C 150.648438 38.082031 149.9375 34.4375 149.230469 30.789062 C 148.46875 31.535156 147.765625 32.277344 147.125 33.128906 C 146.890625 33.4375 146.890625 33.4375 146.652344 33.753906 C 146.40625 34.082031 146.40625 34.082031 146.152344 34.417969 C 145.796875 34.894531 145.4375 35.367188 145.082031 35.839844 C 144.898438 36.085938 144.714844 36.324219 144.527344 36.574219 C 144.007812 37.265625 143.480469 37.957031 142.957031 38.644531 C 141.21875 40.921875 139.5 43.207031 137.8125 45.519531 C 136.558594 47.230469 135.273438 48.917969 133.984375 50.605469 C 132.875 52.058594 131.789062 53.519531 130.714844 54.992188 C 129.445312 56.730469 128.144531 58.4375 126.816406 60.128906 C 125.558594 61.738281 124.351562 63.378906 123.15625 65.039062 C 123.019531 65.226562 122.882812 65.414062 122.742188 65.605469 C 122.625 65.773438 122.503906 65.9375 122.382812 66.109375 C 121.957031 66.644531 121.492188 67.113281 121.003906 67.589844 C 120.914062 67.367188 120.824219 67.140625 120.730469 66.914062 C 118.28125 60.84375 115.8125 54.777344 113.335938 48.71875 C 112.488281 46.640625 111.640625 44.566406 110.792969 42.488281 C 110.515625 41.804688 110.234375 41.121094 109.957031 40.4375 C 109.09375 38.328125 108.230469 36.214844 107.371094 34.105469 C 104.347656 26.679688 104.347656 26.679688 101.273438 19.277344 C 101.1875 19.277344 101.105469 19.277344 101.023438 19.277344 Z M 101.023438 19.277344 "/>
<path style=" stroke:none;fill-rule:nonzero;fill:rgb(100%,1.568628%,0%);fill-opacity:1;" d="M 125 82.859375 C 128.296875 82.859375 131.59375 82.859375 134.992188 82.859375 C 136.421875 88.023438 136.421875 88.023438 136.792969 89.648438 C 136.835938 89.835938 136.878906 90.019531 136.925781 90.214844 C 137.015625 90.601562 137.105469 90.992188 137.195312 91.382812 C 137.886719 94.375 138.601562 97.355469 139.394531 100.320312 C 140.09375 102.953125 140.671875 105.601562 141.21875 108.269531 C 141.277344 108.550781 141.277344 108.550781 141.335938 108.839844 C 141.984375 112 141.984375 112 141.984375 112.898438 C 142.234375 112.898438 142.480469 112.898438 142.734375 112.898438 C 142.769531 112.625 142.769531 112.625 142.808594 112.347656 C 143.152344 109.894531 143.699219 107.511719 144.28125 105.109375 C 144.332031 104.890625 144.382812 104.671875 144.4375 104.449219 C 145.613281 99.515625 146.867188 94.605469 148.128906 89.695312 C 148.25 89.21875 148.371094 88.746094 148.492188 88.269531 C 148.640625 87.683594 148.792969 87.097656 148.941406 86.515625 C 149.011719 86.253906 149.078125 85.992188 149.144531 85.71875 C 149.234375 85.378906 149.234375 85.378906 149.324219 85.03125 C 149.488281 84.316406 149.605469 83.585938 149.726562 82.859375 C 153.109375 82.859375 156.488281 82.859375 159.96875 82.859375 C 159.96875 94.671875 159.96875 106.484375 159.96875 118.65625 C 157.992188 118.65625 156.011719 118.65625 153.976562 118.65625 C 153.976562 108.578125 153.976562 98.5 153.976562 88.117188 C 153.808594 88.117188 153.644531 88.117188 153.472656 88.117188 C 153.40625 88.457031 153.40625 88.457031 153.339844 88.808594 C 152.898438 91.058594 152.417969 93.296875 151.898438 95.53125 C 151.84375 95.773438 151.84375 95.773438 151.785156 96.023438 C 151.261719 98.269531 150.683594 100.492188 150.027344 102.707031 C 149.449219 104.683594 148.980469 106.683594 148.507812 108.6875 C 148.121094 110.335938 147.695312 111.964844 147.214844 113.589844 C 146.84375 114.863281 146.519531 116.148438 146.191406 117.433594 C 145.980469 118.15625 145.980469 118.15625 145.730469 118.40625 C 145.195312 118.429688 144.660156 118.433594 144.121094 118.429688 C 143.796875 118.429688 143.472656 118.429688 143.136719 118.429688 C 142.789062 118.425781 142.441406 118.425781 142.09375 118.421875 C 141.746094 118.421875 141.398438 118.417969 141.050781 118.417969 C 140.195312 118.414062 139.34375 118.410156 138.488281 118.40625 C 137.753906 115.699219 137.066406 112.976562 136.398438 110.253906 C 136.050781 108.828125 135.679688 107.414062 135.269531 106.003906 C 134.75 104.191406 134.28125 102.371094 133.824219 100.542969 C 133.742188 100.214844 133.660156 99.886719 133.578125 99.554688 C 133.40625 98.875 133.234375 98.191406 133.066406 97.511719 C 132.847656 96.636719 132.628906 95.765625 132.410156 94.894531 C 132.238281 94.214844 132.070312 93.539062 131.902344 92.863281 C 131.78125 92.386719 131.660156 91.910156 131.539062 91.429688 C 131.46875 91.140625 131.398438 90.851562 131.324219 90.554688 C 131.257812 90.300781 131.195312 90.046875 131.128906 89.785156 C 130.996094 89.117188 130.996094 89.117188 130.996094 88.117188 C 130.75 88.117188 130.5 88.117188 130.246094 88.117188 C 130.265625 88.332031 130.28125 88.550781 130.300781 88.773438 C 130.53125 91.957031 130.527344 95.128906 130.519531 98.316406 C 130.519531 98.90625 130.519531 99.496094 130.519531 100.085938 C 130.519531 101.621094 130.515625 103.160156 130.511719 104.695312 C 130.511719 106.269531 130.507812 107.84375 130.507812 109.417969 C 130.503906 112.5 130.5 115.578125 130.496094 118.65625 C 128.683594 118.65625 126.867188 118.65625 125 118.65625 C 125 106.84375 125 95.03125 125 82.859375 Z M 125 82.859375 "/>
<path style=" stroke:none;fill-rule:nonzero;fill:rgb(100%,1.960784%,0%);fill-opacity:1;" d="M 89.53125 82.859375 C 91.59375 82.859375 93.652344 82.859375 95.777344 82.859375 C 95.777344 83.625 95.78125 84.394531 95.785156 85.183594 C 95.792969 87.722656 95.804688 90.261719 95.824219 92.800781 C 95.832031 94.339844 95.839844 95.878906 95.84375 97.417969 C 95.847656 98.90625 95.855469 100.390625 95.867188 101.878906 C 95.871094 102.445312 95.875 103.011719 95.875 103.578125 C 95.875 104.371094 95.882812 105.167969 95.890625 105.964844 C 95.886719 106.195312 95.886719 106.425781 95.886719 106.664062 C 95.921875 108.871094 96.5 111.164062 98.074219 112.789062 C 100.09375 114.410156 102.558594 114.386719 105.019531 114.152344 C 106.804688 113.800781 107.984375 113.140625 109.15625 111.746094 C 110.195312 110.011719 110.375 108.480469 110.371094 106.503906 C 110.375 106.246094 110.375 105.992188 110.378906 105.726562 C 110.386719 104.882812 110.390625 104.039062 110.390625 103.199219 C 110.394531 102.613281 110.398438 102.023438 110.40625 101.4375 C 110.417969 99.898438 110.425781 98.363281 110.429688 96.820312 C 110.4375 95.25 110.449219 93.675781 110.460938 92.105469 C 110.484375 89.023438 110.5 85.941406 110.511719 82.859375 C 112.492188 82.859375 114.46875 82.859375 116.507812 82.859375 C 116.523438 86.097656 116.539062 89.339844 116.546875 92.582031 C 116.550781 94.085938 116.554688 95.589844 116.566406 97.09375 C 116.574219 98.550781 116.578125 100.003906 116.578125 101.457031 C 116.582031 102.007812 116.582031 102.5625 116.585938 103.117188 C 116.636719 109.976562 116.636719 109.976562 115.023438 113.023438 C 114.902344 113.257812 114.78125 113.492188 114.660156 113.734375 C 113.019531 116.46875 110.4375 117.898438 107.4375 118.71875 C 103.453125 119.710938 98.992188 119.480469 95.292969 117.589844 C 92.386719 115.769531 90.683594 113.445312 89.78125 110.144531 C 89.546875 108.617188 89.496094 107.136719 89.503906 105.59375 C 89.503906 105.347656 89.503906 105.101562 89.503906 104.84375 C 89.503906 104.035156 89.503906 103.226562 89.507812 102.417969 C 89.507812 101.851562 89.507812 101.289062 89.507812 100.722656 C 89.511719 99.246094 89.511719 97.765625 89.515625 96.285156 C 89.519531 94.773438 89.519531 93.261719 89.519531 91.75 C 89.523438 88.785156 89.527344 85.824219 89.53125 82.859375 Z M 89.53125 82.859375 "/>
<path style=" stroke:none;fill-rule:nonzero;fill:rgb(100%,98.039216%,0%);fill-opacity:1;" d="M 63.054688 102.136719 C 64.886719 102.113281 64.886719 102.113281 66.753906 102.089844 C 67.132812 102.082031 67.511719 102.074219 67.90625 102.066406 C 70.527344 102.050781 73.023438 102.195312 75.113281 103.957031 C 76.308594 105.148438 76.867188 106.148438 76.949219 107.859375 C 76.867188 109.707031 76.242188 111.199219 74.9375 112.507812 C 73.101562 113.628906 71.699219 113.941406 69.566406 113.921875 C 69.402344 113.921875 69.238281 113.921875 69.066406 113.921875 C 68.453125 113.921875 67.839844 113.917969 67.222656 113.914062 C 65.160156 113.90625 65.160156 113.90625 63.054688 113.898438 C 63.054688 110.015625 63.054688 106.132812 63.054688 102.136719 Z M 63.054688 102.136719 "/>
<path style=" stroke:none;fill-rule:nonzero;fill:rgb(100%,98.823529%,0%);fill-opacity:1;" d="M 174.707031 87.613281 C 176.015625 87.59375 177.324219 87.574219 178.671875 87.554688 C 179.078125 87.542969 179.484375 87.535156 179.90625 87.523438 C 182.308594 87.507812 184.097656 87.8125 186.179688 89.054688 C 187.566406 90.570312 187.578125 92.335938 187.53125 94.304688 C 187.375 95.792969 186.820312 96.496094 185.773438 97.566406 C 183.632812 99.175781 181.109375 98.96875 178.5625 98.925781 C 177.289062 98.910156 176.015625 98.894531 174.707031 98.878906 C 174.707031 95.164062 174.707031 91.445312 174.707031 87.613281 Z M 174.707031 87.613281 "/>
<path style=" stroke:none;fill-rule:nonzero;fill:rgb(100%,98.039216%,0%);fill-opacity:1;" d="M 63.054688 87.613281 C 64.363281 87.601562 65.671875 87.585938 67.019531 87.570312 C 67.429688 87.5625 67.835938 87.554688 68.257812 87.546875 C 70.515625 87.535156 72.558594 87.601562 74.53125 88.820312 C 75.535156 89.890625 75.84375 90.792969 75.886719 92.246094 C 75.839844 93.742188 75.449219 94.605469 74.53125 95.78125 C 72.90625 97.097656 70.890625 97.664062 68.835938 97.652344 C 68.535156 97.652344 68.230469 97.652344 67.921875 97.652344 C 67.535156 97.648438 67.152344 97.648438 66.753906 97.644531 C 65.535156 97.640625 64.3125 97.632812 63.054688 97.628906 C 63.054688 94.324219 63.054688 91.019531 63.054688 87.613281 Z M 63.054688 87.613281 "/>
</g>
</svg>
